<?xml version="1.0" encoding="UTF-8"?>
<svg version="1.1" xmlns="http://www.w3.org/2000/svg" width="816" height="387">
<path d="M0 0 C269.28 0 538.56 0 816 0 C816 127.71 816 255.42 816 387 C546.72 387 277.44 387 0 387 C0 259.29 0 131.58 0 0 Z " fill="#FDFDFD" transform="translate(0,0)"/>
<path d="M0 0 C11.85642566 7.09967583 19.82814431 18.01559124 23.40014648 31.48095703 C26.61439154 54.72242128 18.33916464 75.82959946 7.75561523 96.05126953 C8.58061523 96.46376953 9.40561523 96.87626953 10.25561523 97.30126953 C11.08061523 97.87876953 11.90561523 98.45626953 12.75561523 99.05126953 C12.75561523 100.37126953 12.75561523 101.69126953 12.75561523 103.05126953 C13.49811523 103.27814453 14.24061523 103.50501953 15.00561523 103.73876953 C20.41802811 106.32196659 22.91889223 111.76224498 25.56811523 116.92626953 C25.89231445 117.51279297 26.21651367 118.09931641 26.55053711 118.70361328 C28.85459363 123.19331656 29.11605725 126.21222893 27.75561523 131.05126953 C26.09155273 133.13330078 26.09155273 133.13330078 24.13061523 134.86376953 C21.92527885 137.19137302 20.85095372 138.40847194 20.37670898 141.60595703 C20.66241126 145.53582092 21.51856704 148.54625382 23.19311523 152.11376953 C27.10260569 155.06972573 30.94560791 155.18783125 35.75561523 155.05126953 C39.95651788 154.29393667 39.95651788 154.29393667 42.90405273 151.48486328 C44.1403825 147.95168235 43.96541778 144.49344185 43.88061523 140.80126953 C43.8715918 140.05619141 43.86256836 139.31111328 43.85327148 138.54345703 C43.82979882 136.71258894 43.79393049 134.88188715 43.75561523 133.05126953 C42.86874023 133.13376953 41.98186523 133.21626953 41.06811523 133.30126953 C36.8947873 132.98630139 35.60883245 132.0825121 32.75561523 129.05126953 C31.5616376 126.56217734 30.58688621 124.26336729 29.69311523 121.67626953 C27.58783782 115.75554537 25.29355971 110.58921401 20.75561523 106.05126953 C20.75561523 105.06126953 20.75561523 104.07126953 20.75561523 103.05126953 C35.71011976 106.62694185 47.70437683 119.98827388 55.63208008 132.66503906 C63.02529926 144.94726904 71.75065912 161.28403926 68.75561523 176.05126953 C66.97249362 179.65270595 64.59631573 182.23540034 61.75561523 185.05126953 C60.95639648 185.87498047 60.15717773 186.69869141 59.33374023 187.54736328 C44.32322286 202.13598741 24.18317084 209.89446882 3.75561523 213.05126953 C2.81613037 213.21828369 1.87664551 213.38529785 0.90869141 213.55737305 C-7.20657985 214.93849965 -15.08127682 215.40200498 -23.30688477 215.36376953 C-24.57113281 215.35885498 -25.83538086 215.35394043 -27.13793945 215.34887695 C-60.06713524 214.94113037 -87.38236863 205.0195772 -111.24438477 182.05126953 C-112.35233398 181.14054687 -112.35233398 181.14054687 -113.48266602 180.21142578 C-116.90006432 176.02113473 -115.93205725 170.33842218 -115.50610352 165.19384766 C-112.65148239 141.82430008 -97.38986063 122.21274394 -80.12719727 107.21142578 C-78.30688477 105.80126953 -78.30688477 105.80126953 -75.24438477 104.05126953 C-73.05297852 104.44189453 -73.05297852 104.44189453 -71.24438477 105.05126953 C-72.24438477 108.05126953 -72.24438477 108.05126953 -74.61938477 110.11376953 C-78.99634315 115.01179439 -80.12465445 120.58287088 -80.55297852 127.04736328 C-81.32779785 138.07295329 -81.32779785 138.07295329 -84.15844727 141.09423828 C-85.71510833 142.02354932 -87.30564871 142.89831435 -88.92407227 143.71533203 C-94.77582874 147.08452516 -97.92765797 154.37581716 -99.77563477 160.65673828 C-101.15954714 167.72622399 -101.08874296 173.80418747 -97.24438477 180.05126953 C-97.24438477 180.71126953 -97.24438477 181.37126953 -97.24438477 182.05126953 C-95.26438477 182.05126953 -93.28438477 182.05126953 -91.24438477 182.05126953 C-91.24438477 179.41126953 -91.24438477 176.77126953 -91.24438477 174.05126953 C-93.22438477 173.72126953 -95.20438477 173.39126953 -97.24438477 173.05126953 C-97.73981802 163.06920687 -96.45202991 156.08469266 -90.24438477 148.05126953 C-86.43238949 144.3864039 -84.01654178 143.50199704 -78.74438477 143.55126953 C-77.08922852 143.53580078 -77.08922852 143.53580078 -75.40063477 143.52001953 C-71.54865275 144.16837294 -69.99212186 145.30822141 -67.24438477 148.05126953 C-62.51929038 154.76874243 -59.99933382 162.09242162 -58.24438477 170.05126953 C-57.46000595 159.90663679 -59.09867747 153.06975731 -65.61938477 145.17626953 C-68.68731558 142.69270649 -71.75785026 140.89708192 -75.24438477 139.05126953 C-75.76016059 130.03951974 -74.80997991 123.30972702 -71.24438477 115.05126953 C-70.92083008 114.16181641 -70.59727539 113.27236328 -70.26391602 112.35595703 C-67.0932622 103.68518944 -63.3061301 99.49326286 -55.24438477 95.05126953 C-55.76387695 94.04708984 -56.28336914 93.04291016 -56.81860352 92.00830078 C-66.08909603 73.91470326 -75.49471907 53.16205741 -70.33422852 32.38720703 C-65.5594266 17.77186352 -57.27730385 6.24297352 -43.93188477 -1.62451172 C-29.24389455 -8.86176271 -14.266309 -7.84854786 0 0 Z " fill="#6272FD" transform="translate(163.244384765625,75.94873046875)"/>
<path d="M0 0 C5.36471433 0.26823572 10.28752332 1.30141693 15.5 2.5625 C27.88900262 5.25924411 39.12927824 4.93173255 51.14453125 0.875 C54 0 54 0 58 0 C61.85979038 7.8569843 65.04725559 15.45246086 67 24 C67.33 23.34 67.66 22.68 68 22 C68.99 22 69.98 22 71 22 C71.50265209 38.50374359 67.19427717 52.72705112 57 66 C49.94533891 73.44241728 42.43735888 79.01868952 31.9375 79.3125 C25.67518006 79.24570192 20.65656667 77.58215791 15 75 C14.28972656 74.70738281 13.57945313 74.41476563 12.84765625 74.11328125 C5.56361309 70.46404775 1.88359331 62.82910195 -2 56 C-2.53109375 55.06929687 -3.0621875 54.13859375 -3.609375 53.1796875 C-8.04765845 44.85137914 -9.29742141 37.36877431 -9 28 C-7.68 28 -6.36 28 -5 28 C-5.05220703 26.06447266 -5.05220703 26.06447266 -5.10546875 24.08984375 C-5.13362342 22.37240894 -5.16092177 20.65495993 -5.1875 18.9375 C-5.21263672 18.08994141 -5.23777344 17.24238281 -5.26367188 16.36914062 C-5.32849983 10.7723275 -4.65912952 6.95126053 -2 2 C-1.34 1.34 -0.68 0.68 0 0 Z " fill="#FAFCFD" transform="translate(109,101)"/>
<path d="M0 0 C5.176875 -0.061875 10.35375 -0.12375 15.6875 -0.1875 C18.09421997 -0.22846802 18.09421997 -0.22846802 20.54956055 -0.27026367 C32.38984327 -0.3381142 43.63424204 0.7663779 54 7 C55.11375 7.639375 56.2275 8.27875 57.375 8.9375 C60.36687087 11.28825568 60.90111006 12.41861779 62 16 C62.59284245 21.83191529 63.20705332 28.56794444 60.625 34 C54.72205042 40.74622809 45.63661309 45.24384514 36.69303894 46.2628479 C34.31977758 46.34323218 31.96394977 46.33874247 29.58984375 46.29296875 C28.83223755 46.28994751 28.07463135 46.28692627 27.29406738 46.28381348 C24.50840305 46.26831196 21.72293542 46.22643064 18.9375 46.1875 C9.5634375 46.0946875 9.5634375 46.0946875 0 46 C0 30.82 0 15.64 0 0 Z " fill="#4A4ACC" transform="translate(293,155)"/>
<path d="M0 0 C1.13121277 -0.00855011 1.13121277 -0.00855011 2.28527832 -0.01727295 C3.87197486 -0.0266731 5.45869049 -0.03323697 7.04541016 -0.03710938 C9.46160919 -0.04684622 11.87696768 -0.07792817 14.29296875 -0.109375 C15.84114083 -0.11590348 17.38931893 -0.12115456 18.9375 -0.125 C19.65329224 -0.1373468 20.36908447 -0.1496936 21.10656738 -0.16241455 C26.94516697 -0.13668091 30.8365205 1.41666244 35.28125 5.140625 C39.12491917 9.83844287 38.2245087 16.23936029 38.28125 22.015625 C38.31025391 22.98822266 38.33925781 23.96082031 38.36914062 24.96289062 C38.42473835 31.279648 37.94206954 35.18993831 33.96875 40.203125 C28.34964158 44.17728693 24.09814966 44.8085187 17.30859375 44.76953125 C16.40049454 44.77572983 15.49239532 44.78192841 14.55677795 44.78831482 C12.6465054 44.79538644 10.73617087 44.79228565 8.82592773 44.77954102 C5.91079173 44.76564665 2.99885126 44.79981829 0.08398438 44.83789062 C-1.77864661 44.83884169 -3.6412816 44.83698369 -5.50390625 44.83203125 C-6.36967789 44.84528946 -7.23544952 44.85854767 -8.12745667 44.87220764 C-12.36014537 44.80734194 -15.15776309 44.54251418 -18.51098633 41.82568359 C-24.50573977 35.58760925 -24.4998276 29.90144785 -24.40625 21.640625 C-24.41785156 20.61259766 -24.42945313 19.58457031 -24.44140625 18.52539062 C-24.41562019 11.89407494 -23.84820041 8.02007541 -19.03125 3.203125 C-12.90625712 0.31076725 -6.67817555 0.03965038 0 0 Z " fill="#4545CB" transform="translate(392.03125,155.796875)"/>
<path d="M0 0 C1.3940078 -0.00786278 1.3940078 -0.00786278 2.81617737 -0.0158844 C4.77530929 -0.02228783 6.73447974 -0.02098941 8.69360352 -0.01245117 C11.6785988 -0.00394276 14.66167791 -0.03272341 17.64648438 -0.06445312 C19.55598901 -0.06606547 21.46549702 -0.06548697 23.375 -0.0625 C24.26062119 -0.07373398 25.14624237 -0.08496796 26.05870056 -0.09654236 C31.92801134 -0.03107282 35.48124706 0.93886618 40.25390625 4.43359375 C42.05218448 9.82842844 41.56651911 15.60005759 41.62890625 21.24609375 C41.68498047 23.15358398 41.68498047 23.15358398 41.7421875 25.09960938 C41.84109633 35.58944068 41.84109633 35.58944068 39.16796875 39.1328125 C33.40819896 43.68040554 28.28394288 44.9003191 21.046875 44.90234375 C19.89872063 44.91376404 19.89872063 44.91376404 18.72737122 44.92541504 C17.11637613 44.93616123 15.50531169 44.93909158 13.89428711 44.93457031 C11.45761042 44.9336002 9.02411207 44.97523184 6.58789062 45.01953125 C-1.96083133 45.08780286 -9.77038196 45.09050476 -16.74609375 39.43359375 C-20.93880525 34.31177113 -20.22564097 27.76361116 -20.18359375 21.43359375 C-20.20357422 20.36625 -20.22355469 19.29890625 -20.24414062 18.19921875 C-20.24040115 12.18613551 -20.12206747 7.97703402 -15.74609375 3.43359375 C-10.50668196 0.07793045 -6.02065808 -0.01991164 0 0 Z " fill="#4242CA" transform="translate(610.74609375,156.56640625)"/>
<path d="M0 0 C5.51984425 4.06590107 9.47278273 10.10201089 13.3125 15.6875 C13.83650391 16.43322266 14.36050781 17.17894531 14.90039062 17.94726562 C21 26.70227473 21 26.70227473 21 31 C21.94875 30.319375 22.8975 29.63875 23.875 28.9375 C24.40867187 28.55464844 24.94234375 28.17179687 25.4921875 27.77734375 C27.89196602 24.94858928 28.5018047 22.65981933 29 19 C27.49699003 16.37889725 26.22544039 14.57110129 24.25 12.375 C21.16008599 8.77575951 18.46949043 5.59642938 17 1 C18.45736087 0.80508548 19.91594593 0.61930642 21.375 0.4375 C22.18710937 0.33308594 22.99921875 0.22867188 23.8359375 0.12109375 C26 0 26 0 28 1 C28 1.66 28 2.32 28 3 C28.99 3.33 29.98 3.66 31 4 C32.31640625 5.59375 32.31640625 5.59375 33.5625 7.5 C35.31619395 10.25536594 35.31619395 10.25536594 38 12 C38.2475 11.278125 38.495 10.55625 38.75 9.8125 C40.68767416 5.45273313 43.03723926 2.6418405 47 0 C48.9375 -0.265625 48.9375 -0.265625 51 -0.25 C51.680625 -0.25515625 52.36125 -0.2603125 53.0625 -0.265625 C55 0 55 0 58 2 C56.75153512 3.73027536 55.50115598 5.45916957 54.25 7.1875 C53.55390625 8.15042969 52.8578125 9.11335937 52.140625 10.10546875 C50.73654223 12.00405512 49.27470613 13.86152297 47.75390625 15.66796875 C45.51275405 18.64785263 45.60337678 20.35106638 46 24 C46.495 25.485 46.495 25.485 47 27 C47.99 27.33 48.98 27.66 50 28 C50 28.66 50 29.32 50 30 C54.18625177 26.04460771 57.58896205 21.75673934 61 17.125 C61.50789062 16.44308594 62.01578125 15.76117188 62.5390625 15.05859375 C64.97551136 11.77875875 67.36284842 8.47714424 69.6875 5.1171875 C72 2 72 2 75 0 C81.33333333 -0.33333333 81.33333333 -0.33333333 84 1 C82.55957405 5.06140718 80.59486776 8.28864106 78.125 11.8125 C77.73642822 12.36728027 77.34785645 12.92206055 76.94750977 13.49365234 C72.72199585 19.47862629 68.3028877 25.31930066 63.88671875 31.1640625 C60.19038802 36.06069129 56.58588069 41.02195386 53 46 C47.72776158 44.73103717 45.67213923 42.93644792 42.625 38.5 C41.59246094 37.03046875 41.59246094 37.03046875 40.5390625 35.53125 C39 33 39 33 39 31 C34.56518264 33.24497859 32.00701195 36.20452888 29.1875 40.1875 C28.78080078 40.74630859 28.37410156 41.30511719 27.95507812 41.88085938 C26.96186136 43.24799305 25.97977066 44.6231981 25 46 C22.87890625 46.00390625 22.87890625 46.00390625 20 45 C17.6607147 42.53997739 15.83231744 39.74667034 13.9375 36.9375 C12.79183736 35.29324367 11.64466838 33.65003601 10.49609375 32.0078125 C9.91714355 31.17282227 9.33819336 30.33783203 8.74169922 29.47753906 C6.07980832 25.69104217 3.2960516 22.00046783 0.5 18.3125 C-1.34078707 15.88048415 -3.17326715 13.44258359 -5 11 C-5.47953125 10.3714209 -5.9590625 9.7428418 -6.453125 9.09521484 C-10 4.33906469 -10 4.33906469 -10 1 C-6.70789097 -0.64605452 -3.5319351 -0.7736197 0 0 Z " fill="#4444CB" transform="translate(670,156)"/>
<path d="M0 0 C1.35232224 0.00424484 1.35232224 0.00424484 2.73196411 0.00857544 C5.59488526 0.01971811 8.45748684 0.0448117 11.3203125 0.0703125 C13.26822463 0.08034995 15.21614169 0.08947446 17.1640625 0.09765625 C21.9246012 0.11963807 26.68490277 0.154127 31.4453125 0.1953125 C31.4453125 3.4953125 31.4453125 6.7953125 31.4453125 10.1953125 C29.68272095 10.20933105 29.68272095 10.20933105 27.88452148 10.22363281 C23.50263301 10.26366585 19.12143682 10.32946124 14.73999023 10.40283203 C12.84782846 10.43096466 10.95555086 10.45221738 9.06323242 10.46630859 C6.3345238 10.48784536 3.60719659 10.53454919 0.87890625 10.5859375 C0.04008408 10.58716614 -0.7987381 10.58839478 -1.66297913 10.58966064 C-7.45228537 10.73230338 -10.7115143 12.03039863 -15.5546875 15.1953125 C-16.5446875 15.5253125 -17.5346875 15.8553125 -18.5546875 16.1953125 C-18.29881345 17.96836914 -18.02441011 19.73875858 -17.7421875 21.5078125 C-17.59136719 22.49394531 -17.44054687 23.48007813 -17.28515625 24.49609375 C-16.48032393 27.4700998 -15.87077302 28.26249966 -13.5546875 30.1953125 C-5.62755983 33.98000526 3.16742968 33.70792469 11.7578125 33.8203125 C14.42075853 33.86870076 17.08332978 33.92594028 19.74609375 33.984375 C20.91309814 34.00193848 22.08010254 34.01950195 23.2824707 34.03759766 C26.11660044 34.1789213 28.68786551 34.55034484 31.4453125 35.1953125 C31.4453125 37.8353125 31.4453125 40.4753125 31.4453125 43.1953125 C25.32556832 43.2946094 19.20629898 43.36698346 13.0859375 43.41503906 C11.00642725 43.43508409 8.92697287 43.46232763 6.84765625 43.49707031 C3.84881763 43.54590198 0.85072787 43.56835278 -2.1484375 43.5859375 C-3.06959351 43.60658264 -3.99074951 43.62722778 -4.93981934 43.64849854 C-11.92614746 43.65089626 -17.46977624 42.19089235 -22.578125 37.23046875 C-23.02414062 36.57949219 -23.47015625 35.92851562 -23.9296875 35.2578125 C-24.39117187 34.60941406 -24.85265625 33.96101563 -25.328125 33.29296875 C-28.01307773 28.70118653 -28.84850883 25.02496039 -28.8671875 19.6953125 C-28.88394531 18.591875 -28.90070313 17.4884375 -28.91796875 16.3515625 C-28.50692555 12.78034849 -27.75122529 11.02287321 -25.5546875 8.1953125 C-23.28515625 6.46484375 -23.28515625 6.46484375 -20.7421875 5.0078125 C-19.49501953 4.27498047 -19.49501953 4.27498047 -18.22265625 3.52734375 C-12.00943767 0.42528294 -6.81825479 -0.08128582 0 0 Z " fill="#4646CB" transform="translate(471.5546875,156.8046875)"/>
<path d="M0 0 C2.97 0 5.94 0 9 0 C9 14.19 9 28.38 9 43 C4.57854124 41.52618041 0.88821293 40.06219693 -3.21875 37.98828125 C-3.79854614 37.69696823 -4.37834229 37.40565521 -4.97570801 37.10551453 C-6.81907162 36.17828805 -8.65958197 35.24555703 -10.5 34.3125 C-11.70293534 33.70600388 -12.90605916 33.09988146 -14.109375 32.49414062 C-16.51619932 31.28189661 -18.9224683 30.06856341 -21.328125 28.85400391 C-21.92753906 28.55141663 -22.52695312 28.24882935 -23.14453125 27.93707275 C-24.41425861 27.29581867 -25.68378011 26.65415684 -26.953125 26.012146 C-28.87401239 25.04128082 -30.79623965 24.07311533 -32.71875 23.10546875 C-33.85248047 22.5333667 -34.98621094 21.96126465 -36.15429688 21.37182617 C-38.97526236 19.93763192 -38.97526236 19.93763192 -42 19 C-41.98839844 19.78761719 -41.97679687 20.57523438 -41.96484375 21.38671875 C-41.8991982 29.31107387 -42.27682714 37.10966757 -43 45 C-45.97 45 -48.94 45 -52 45 C-52 30.81 -52 16.62 -52 2 C-48.16637236 2.76672553 -46.04330985 3.29578185 -42.74804688 4.99365234 C-41.5415448 5.60966812 -41.5415448 5.60966812 -40.31066895 6.23812866 C-39.02766907 6.90529404 -39.02766907 6.90529404 -37.71875 7.5859375 C-36.82764526 8.04352448 -35.93654053 8.50111145 -35.01843262 8.9725647 C-33.13759547 9.93976826 -31.25827197 10.90992022 -29.38037109 11.8828125 C-26.51322654 13.36814794 -23.64185825 14.84502788 -20.76953125 16.3203125 C-18.93985164 17.26253061 -17.11041629 18.20522324 -15.28125 19.1484375 C-14.42591675 19.58916595 -13.5705835 20.02989441 -12.68933105 20.48397827 C-11.48282898 21.10945053 -11.48282898 21.10945053 -10.25195312 21.74755859 C-9.54977661 22.1109433 -8.8476001 22.474328 -8.12414551 22.84872437 C-5.70777436 24.15838475 -3.35678929 25.58592642 -1 27 C-0.67 18.09 -0.34 9.18 0 0 Z " fill="#4343CB" transform="translate(569,156)"/>
<path d="M0 0 C0.76267181 -0.0033284 1.52534363 -0.0066568 2.31112671 -0.01008606 C3.91639607 -0.01513046 5.52167584 -0.01749516 7.12695312 -0.01733398 C9.58480905 -0.01953024 12.04222278 -0.03773842 14.5 -0.05664062 C16.06249847 -0.0595731 17.62499906 -0.06155887 19.1875 -0.0625 C19.92191315 -0.06968552 20.65632629 -0.07687103 21.41299438 -0.08427429 C25.1493572 -0.06747702 26.76946316 0.04031919 29.9609375 2.16796875 C30.31738281 4.18334961 30.31738281 4.18334961 30.2890625 6.6328125 C30.28390625 7.51517578 30.27875 8.39753906 30.2734375 9.30664062 C30.2528125 10.23025391 30.2321875 11.15386719 30.2109375 12.10546875 C30.20578125 13.02521484 30.200625 13.94496094 30.1953125 14.89257812 C30.11582932 21.7032933 30.11582932 21.7032933 28.9609375 25.16796875 C25.39172571 27.84140018 21.28117298 27.44007042 17.01953125 27.3984375 C16.25544449 27.39797928 15.49135773 27.39752106 14.70411682 27.39704895 C13.09284914 27.39403443 11.48158417 27.38617208 9.87036133 27.3737793 C7.40370366 27.35550776 4.93742146 27.35326986 2.47070312 27.35351562 C0.90364259 27.34860051 -0.66341541 27.34277222 -2.23046875 27.3359375 C-3.33679405 27.33426826 -3.33679405 27.33426826 -4.46546936 27.33256531 C-7.58899414 27.30358342 -10.05341145 27.16318577 -13.0390625 26.16796875 C-14.93662858 21.18369517 -15.31058768 16.77773961 -15.2890625 11.41796875 C-15.29421875 10.12375 -15.299375 8.82953125 -15.3046875 7.49609375 C-15.0390625 4.16796875 -15.0390625 4.16796875 -13.0390625 1.16796875 C-8.81440966 -0.17950794 -4.39592976 0.00669788 0 0 Z " fill="#F1F1FB" transform="translate(614.0390625,164.83203125)"/>
<path d="M0 0 C1.14544281 0.00068733 1.14544281 0.00068733 2.31402588 0.00138855 C3.9175371 0.00439418 5.52104585 0.01222949 7.12451172 0.0246582 C9.58441433 0.04301569 12.04394199 0.04516694 14.50390625 0.04492188 C16.06510743 0.04983402 17.62630607 0.05566101 19.1875 0.0625 C19.92393738 0.06361282 20.66037476 0.06472565 21.41912842 0.06587219 C26.59589778 0.11435514 26.59589778 0.11435514 28.828125 1.23046875 C28.828125 8.82046875 28.828125 16.41046875 28.828125 24.23046875 C17.5586245 27.6113189 17.5586245 27.6113189 11.6484375 27.62890625 C10.3903125 27.63277344 9.1321875 27.63664062 7.8359375 27.640625 C6.55460937 27.62902344 5.27328125 27.61742187 3.953125 27.60546875 C2.64859375 27.61707031 1.3440625 27.62867188 0 27.640625 C-1.25039063 27.63675781 -2.50078125 27.63289063 -3.7890625 27.62890625 C-4.91940918 27.62552246 -6.04975586 27.62213867 -7.21435547 27.61865234 C-10.52253819 27.18444312 -11.93420785 26.70037201 -14.171875 24.23046875 C-14.62597656 21.87036133 -14.62597656 21.87036133 -14.5625 19.125 C-14.54316406 17.65063477 -14.54316406 17.65063477 -14.5234375 16.14648438 C-14.48992187 15.12232422 -14.45640625 14.09816406 -14.421875 13.04296875 C-14.40382813 12.00720703 -14.38578125 10.97144531 -14.3671875 9.90429688 C-14.32001937 7.34542591 -14.25421557 4.78841033 -14.171875 2.23046875 C-9.38761247 0.33618983 -5.08401421 -0.05015686 0 0 Z " fill="#F4F4FB" transform="translate(391.171875,164.76953125)"/>
<path d="M0 0 C3.94771005 -0.09264509 7.89259535 -0.17201964 11.84082031 -0.21972656 C13.83164478 -0.24935477 15.82211708 -0.30022326 17.8125 -0.3515625 C26.83242902 -0.44267289 34.50275393 0.25229494 41.625 6.1875 C43.54092256 10.10643252 43.81422732 13.71613735 43 18 C41.01794904 22.02385435 39.47902042 23.75225175 35.26171875 25.296875 C28.15729153 27.62404608 21.21552088 27.44219026 13.8125 27.25 C12.46552172 27.22987889 11.118514 27.21163815 9.77148438 27.1953125 C6.5140071 27.14861032 3.25690468 27.07688431 0 27 C0 18.09 0 9.18 0 0 Z " fill="#F6F6FC" transform="translate(303,165)"/>
<path d="M0 0 C4.91679604 2.11016828 6.65059187 5.32966141 9 10 C10.3074739 13.35981172 11.53452962 16.72994382 12.69140625 20.14453125 C14.09822095 23.2143269 15.0904654 24.35957668 18 26 C21.15118325 26.72045367 21.15118325 26.72045367 24 27 C25.10111689 30.30335066 25.20226528 32.89832137 25.25 36.375 C25.27578125 37.49648437 25.3015625 38.61796875 25.328125 39.7734375 C24.96544149 43.3398253 24.1494477 45.16129947 22 48 C16.94170508 50.71420703 11.43353172 50.512333 6 49 C2.03877545 45.84718862 0.71163478 43.17670897 -0.3125 38.25 C-0.54970194 34.73941135 -0.23976307 33.35038224 1.76953125 30.4140625 C3.25214886 28.72631916 4.73651512 27.04011028 6.22265625 25.35546875 C8.32917258 22.97804288 8.32917258 22.97804288 8.4375 19.1875 C7.1674672 14.03328355 4.12888087 9.32413544 1.49609375 4.7578125 C0 2 0 2 0 0 Z " fill="#F0F2FD" transform="translate(183,182)"/>
<path d="M0 0 C4.58739519 1.69873131 8.47373745 4.06126135 12.59765625 6.66015625 C18.81323238 10.1267296 26.0786209 9.56283742 33 9 C37.42433254 7.72690146 41.04162434 5.59133817 44.9375 3.1875 C45.618125 2.795625 46.29875 2.40375 47 2 C47.66 2.33 48.32 2.66 49 3 C44.65020988 10.31686549 39.82156765 16.80035982 34.3125 23.25 C31.67315353 26.38868229 29.30855928 29.61411305 27 33 C18.02733987 29.85956895 13.23892141 20.44975663 8 13 C7.60192139 12.43619629 7.20384277 11.87239258 6.79370117 11.29150391 C4 7.24060638 4 7.24060638 4 5 C2.68 4.34 1.36 3.68 0 3 C0 2.01 0 1.02 0 0 Z " fill="#F2F3FD" transform="translate(114,176)"/>
<path d="M0 0 C0.33 0 0.66 0 1 0 C1 2.31 1 4.62 1 7 C1.886875 7.226875 2.77375 7.45375 3.6875 7.6875 C7.518831 9.20557455 9.28660308 10.92957717 12 14 C12.70125 14.78375 13.4025 15.5675 14.125 16.375 C19.79081699 24.30714379 19.32558295 31.6304463 19 41 C16.82024226 37.73036338 16.23479296 35.23935018 15.3125 31.4375 C13.43653547 24.61323658 10.69480863 19.30767774 6 14 C1.55348078 11.77674039 -4.17271477 12.4943404 -9 13 C-13.5395158 14.85039311 -16.185798 19.07809734 -18.1875 23.3984375 C-19.96160342 29.07898017 -20.41587888 35.09730234 -21 41 C-19.02 41.33 -17.04 41.66 -15 42 C-15 44.64 -15 47.28 -15 50 C-16.98 50 -18.96 50 -21 50 C-25.4259568 42.66950905 -26.29494779 36.5552494 -24.33984375 28.16796875 C-21.98949734 20.893087 -18.33976496 13.81210689 -11.76953125 9.5546875 C-9.5625 8.4375 -9.5625 8.4375 -6 7 C-6 7.66 -6 8.32 -6 9 C-4.02 9 -2.04 9 0 9 C0 6.03 0 3.06 0 0 Z " fill="#CDD2FD" transform="translate(87,208)"/>
<path d="M0 0 C2.05078125 0.03255208 4.1015625 0.06510417 6.15234375 0.09765625 C6.15234375 2.73765625 6.15234375 5.37765625 6.15234375 8.09765625 C8.79234375 8.09765625 11.43234375 8.09765625 14.15234375 8.09765625 C14.15234375 10.73765625 14.15234375 13.37765625 14.15234375 16.09765625 C11.18234375 16.09765625 8.21234375 16.09765625 5.15234375 16.09765625 C5.15234375 19.06765625 5.15234375 22.03765625 5.15234375 25.09765625 C2.51234375 25.09765625 -0.12765625 25.09765625 -2.84765625 25.09765625 C-2.84765625 22.12765625 -2.84765625 19.15765625 -2.84765625 16.09765625 C-5.48765625 16.09765625 -8.12765625 16.09765625 -10.84765625 16.09765625 C-10.84765625 13.78765625 -10.84765625 11.47765625 -10.84765625 9.09765625 C-8.20765625 8.76765625 -5.56765625 8.43765625 -2.84765625 8.09765625 C-2.86828125 6.96328125 -2.88890625 5.82890625 -2.91015625 4.66015625 C-2.83102423 0.1496313 -2.83102423 0.1496313 0 0 Z " fill="#F2F3FD" transform="translate(162.84765625,235.90234375)"/>
<path d="M0 0 C3.125 1.5 3.125 1.5 5 4 C5.63763103 6.80327878 5.63332636 9.19609148 5 12 C2.79259319 14.96858157 1.51402627 15.82865791 -2 17 C-8.35185185 17.4537037 -8.35185185 17.4537037 -10.875 15.6875 C-12.74570294 12.88144559 -13.17520182 10.29111997 -13.25 7 C-13.28867188 5.9790625 -13.28867188 5.9790625 -13.328125 4.9375 C-12.19669549 -1.74332184 -5.2377866 -0.72561693 0 0 Z " fill="#6877FE" transform="translate(200,211)"/>
<path d="M0 0 C0.99 0.33 1.98 0.66 3 1 C4.0647596 4.03046963 4.34863679 6.19278286 3.05859375 9.1796875 C2.41083984 10.42105469 2.41083984 10.42105469 1.75 11.6875 C-2.2066933 19.62292945 -2.89164051 28.30433405 -4 37 C-5.98 37 -7.96 37 -10 37 C-9.18447694 11.18447694 -9.18447694 11.18447694 -2 4 C-1.34 3.67 -0.68 3.34 0 3 C0 2.01 0 1.02 0 0 Z " fill="#E9EBFD" transform="translate(91,180)"/>
<path d="M0 0 C1.98 0 3.96 0 6 0 C6 2.64 6 5.28 6 8 C4.02 8 2.04 8 0 8 C0 5.36 0 2.72 0 0 Z " fill="#E1E4FE" transform="translate(66,250)"/>
<path d="M0 0 C2.31 0 4.62 0 7 0 C6.125 5.875 6.125 5.875 5 7 C3.33382885 7.04063832 1.66611905 7.042721 0 7 C0 4.69 0 2.38 0 0 Z " fill="#E9ECFE" transform="translate(97,250)"/>
</svg>
