<svg version="1.1" id="Layer_1" xmlns="http://www.w3.org/2000/svg" xmlns:xlink="http://www.w3.org/1999/xlink" x="0px" y="0px"
	 width="100%" viewBox="0 0 196 215" enable-background="new 0 0 196 215" xml:space="preserve">
<path fill="#FEFEFF" opacity="1.000000" stroke="none" 
	d="
M127.000000,216.000000 
	C84.666672,216.000000 42.833340,216.000000 1.000006,216.000000 
	C1.000004,144.333344 1.000004,72.666679 1.000002,1.000015 
	C66.333321,1.000010 131.666641,1.000010 196.999969,1.000005 
	C196.999985,72.666649 196.999985,144.333298 197.000000,215.999969 
	C173.833328,216.000000 150.666672,216.000000 127.000000,216.000000 
M60.999878,116.999893 
	C60.999878,116.999893 60.979473,116.954529 60.326538,116.482910 
	C58.862648,117.228050 57.246372,117.772240 55.958221,118.749115 
	C41.485119,129.724915 33.263615,144.418762 29.857397,162.136963 
	C29.085958,166.149780 29.867155,169.018555 32.326324,172.149643 
	C39.339272,181.078751 48.491165,186.832214 58.833435,190.976807 
	C77.325516,198.387360 96.641212,198.148422 115.900124,196.247421 
	C132.441147,194.614716 147.716690,189.015930 159.732559,176.864319 
	C163.184082,173.373795 167.923401,170.226334 166.851227,164.046906 
	C163.896469,147.017014 156.116150,132.663116 142.772552,121.597771 
	C139.563812,118.936890 135.582840,117.207214 131.974640,114.711021 
	C131.865570,114.745346 131.756516,114.779678 131.647446,114.814003 
	C131.778702,114.867004 131.909943,114.919998 132.084015,115.667892 
	C134.592590,120.331345 137.419067,124.859093 139.489624,129.709534 
	C140.716736,132.584152 141.783371,134.712555 144.982269,136.017883 
	C149.340195,137.796127 151.210770,142.723938 149.895111,147.398972 
	C148.632172,151.886673 145.325882,154.418076 140.817932,154.774139 
	C135.946198,155.158936 132.609146,152.548279 130.774078,148.090363 
	C129.040878,143.879913 130.401184,139.508102 134.268723,136.626114 
	C135.319870,135.842850 136.432373,135.141953 137.582779,134.358231 
	C134.980194,123.603828 128.809586,115.408363 120.622650,108.874542 
	C121.010605,108.034561 121.113831,107.709190 121.295280,107.435715 
	C122.123772,106.187019 123.086418,105.013977 123.799530,103.704140 
	C131.685455,89.219467 135.795258,73.986282 130.948853,57.678432 
	C127.074715,44.642155 117.850677,36.445007 104.618729,33.714607 
	C91.846626,31.079100 80.924461,35.315235 72.395119,45.204342 
	C63.261948,55.793545 61.338963,68.278046 64.664612,81.327858 
	C67.078125,90.798424 70.988731,99.887466 74.144791,108.898247 
	C71.923149,110.853966 68.982880,113.442291 65.515083,115.626175 
	C64.128159,112.480812 63.953144,112.426323 61.431419,115.045837 
	C61.270885,115.697861 61.110352,116.349876 60.999878,116.999893 
M146.687286,142.986664 
	C143.881668,137.604919 138.486542,136.082886 135.467194,140.267395 
	C134.125244,142.127213 133.584015,145.883133 134.589478,147.749191 
	C135.603424,149.631012 139.048248,151.301620 141.314774,151.166397 
	C145.247482,150.931763 147.006546,147.726746 146.687286,142.986664 
z"/>
<path fill="#6372FF" opacity="1.000000" stroke="none" 
	d="
M66.042618,116.030624 
	C68.982880,113.442291 71.923149,110.853966 74.144791,108.898247 
	C70.988731,99.887466 67.078125,90.798424 64.664612,81.327858 
	C61.338963,68.278046 63.261948,55.793545 72.395119,45.204342 
	C80.924461,35.315235 91.846626,31.079100 104.618729,33.714607 
	C117.850677,36.445007 127.074715,44.642155 130.948853,57.678432 
	C135.795258,73.986282 131.685455,89.219467 123.799530,103.704140 
	C123.086418,105.013977 122.123772,106.187019 121.295280,107.435715 
	C121.113831,107.709190 121.010605,108.034561 120.622650,108.874542 
	C128.809586,115.408363 134.980194,123.603828 137.582779,134.358231 
	C136.432373,135.141953 135.319870,135.842850 134.268723,136.626114 
	C130.401184,139.508102 129.040878,143.879913 130.774078,148.090363 
	C132.609146,152.548279 135.946198,155.158936 140.817932,154.774139 
	C145.325882,154.418076 148.632172,151.886673 149.895111,147.398972 
	C151.210770,142.723938 149.340195,137.796127 144.982269,136.017883 
	C141.783371,134.712555 140.716736,132.584152 139.489624,129.709534 
	C137.419067,124.859093 134.592590,120.331345 132.040405,115.338249 
	C131.996811,115.008606 131.957016,115.049294 131.957016,115.049286 
	C135.582840,117.207214 139.563812,118.936890 142.772552,121.597771 
	C156.116150,132.663116 163.896469,147.017014 166.851227,164.046906 
	C167.923401,170.226334 163.184082,173.373795 159.732559,176.864319 
	C147.716690,189.015930 132.441147,194.614716 115.900124,196.247421 
	C96.641212,198.148422 77.325516,198.387360 58.833435,190.976807 
	C48.491165,186.832214 39.339272,181.078751 32.326324,172.149643 
	C29.867155,169.018555 29.085958,166.149780 29.857397,162.136963 
	C33.263615,144.418762 41.485119,129.724915 55.958221,118.749115 
	C57.246372,117.772240 58.862648,117.228050 60.716179,117.086487 
	C59.096172,123.299828 57.056065,128.898941 55.088692,134.523499 
	C53.969799,137.722305 52.969852,140.962723 52.064037,143.732727 
	C53.888237,143.732727 56.789856,143.732727 59.429642,143.732727 
	C56.709541,133.076614 61.444469,124.569565 66.042618,116.030624 
M77.924065,103.491791 
	C91.440544,120.400185 108.403557,116.763229 118.390167,103.668442 
	C124.903336,95.128143 128.035065,85.136848 128.211960,74.319664 
	C128.216248,74.057610 127.929047,73.790794 127.684502,73.362968 
	C126.726105,73.830284 125.768730,74.297112 125.442558,74.456154 
	C122.826469,68.083374 120.292015,61.909451 117.575462,55.291939 
	C104.959839,63.124504 92.877869,61.251110 80.730339,57.083981 
	C75.459885,55.275986 73.791641,56.015987 72.976166,61.686310 
	C72.229248,66.879944 72.317368,72.193672 72.028130,77.631157 
	C71.039818,77.583275 69.723869,77.519516 68.324982,77.451744 
	C70.166351,89.606804 71.546249,93.399025 77.924065,103.491791 
M101.413750,132.965302 
	C105.411880,127.666885 109.410011,122.368477 113.408150,117.070068 
	C113.112175,116.569145 112.816208,116.068230 112.520233,115.567307 
	C102.476875,122.663422 92.460541,120.512444 82.132690,116.587250 
	C87.130394,123.523857 92.128098,130.460464 97.377739,137.746765 
	C98.838707,136.020737 99.895996,134.771622 101.413750,132.965302 
M120.966408,169.494431 
	C122.720573,169.227203 124.474747,168.959961 126.041107,168.721329 
	C128.605484,161.908371 122.688568,163.822723 120.533936,162.071121 
	C119.623047,159.893066 118.491409,156.897415 116.791824,156.530182 
	C111.602455,155.408844 114.387535,160.725372 112.427917,162.251968 
	C110.264977,163.206970 107.034279,164.276062 106.722176,165.904510 
	C105.750526,170.974258 111.206543,167.974426 113.049690,170.078949 
	C113.281403,171.924316 113.522758,173.846558 113.804100,176.087189 
	C115.854408,175.992416 117.587364,175.912308 119.254112,175.835266 
	C119.653297,173.562393 119.964340,171.791382 120.966408,169.494431 
M68.812561,171.662170 
	C74.417084,168.525833 75.757149,162.041611 71.040131,158.077499 
	C71.337715,160.585236 72.165970,162.788498 71.666039,164.631500 
	C71.113739,166.667572 69.327133,168.362518 68.129990,170.239151 
	C68.001724,170.440216 68.219475,170.862015 68.812561,171.662170 
M45.431519,152.121658 
	C45.913326,150.935440 46.395134,149.749207 46.876942,148.562988 
	C42.002098,151.847610 40.365070,156.960663 42.089912,161.584122 
	C43.139374,158.504730 44.113560,155.646225 45.431519,152.121658 
z"/>
<path fill="#6776FF" opacity="1.000000" stroke="none" 
	d="
M146.777374,143.361923 
	C147.006546,147.726746 145.247482,150.931763 141.314774,151.166397 
	C139.048248,151.301620 135.603424,149.631012 134.589478,147.749191 
	C133.584015,145.883133 134.125244,142.127213 135.467194,140.267395 
	C138.486542,136.082886 143.881668,137.604919 146.777374,143.361923 
z"/>
<path fill="#E4E6FF" opacity="1.000000" stroke="none" 
	d="
M65.778854,115.828400 
	C61.444469,124.569565 56.709541,133.076614 59.429642,143.732727 
	C56.789856,143.732727 53.888237,143.732727 52.064037,143.732727 
	C52.969852,140.962723 53.969799,137.722305 55.088692,134.523499 
	C57.056065,128.898941 59.096172,123.299828 61.042648,117.322296 
	C60.979473,116.954529 60.999878,116.999893 61.355133,116.889732 
	C61.814091,116.032578 61.917793,115.285576 62.021492,114.538582 
	C63.953144,112.426323 64.128159,112.480812 65.778854,115.828400 
z"/>
<path fill="#6372FF" opacity="1.000000" stroke="none" 
	d="
M61.726456,114.792206 
	C61.917793,115.285576 61.814091,116.032578 61.330101,116.890732 
	C61.110352,116.349876 61.270885,115.697861 61.726456,114.792206 
z"/>
<path fill="#6372FF" opacity="1.000000" stroke="none" 
	d="
M132.019012,114.990799 
	C131.909943,114.919998 131.778702,114.867004 131.647446,114.814003 
	C131.756516,114.779678 131.865570,114.745346 131.965820,114.880157 
	C131.957016,115.049294 131.996811,115.008606 132.019012,114.990799 
z"/>
<path fill="#FCFCFF" opacity="1.000000" stroke="none" 
	d="
M77.710388,103.201500 
	C71.546249,93.399025 70.166351,89.606804 68.324982,77.451744 
	C69.723869,77.519516 71.039818,77.583275 72.028130,77.631157 
	C72.317368,72.193672 72.229248,66.879944 72.976166,61.686310 
	C73.791641,56.015987 75.459885,55.275986 80.730339,57.083981 
	C92.877869,61.251110 104.959839,63.124504 117.575462,55.291939 
	C120.292015,61.909451 122.826469,68.083374 125.442558,74.456154 
	C125.768730,74.297112 126.726105,73.830284 127.684502,73.362968 
	C127.929047,73.790794 128.216248,74.057610 128.211960,74.319664 
	C128.035065,85.136848 124.903336,95.128143 118.390167,103.668442 
	C108.403557,116.763229 91.440544,120.400185 77.710388,103.201500 
z"/>
<path fill="#F5F6FF" opacity="1.000000" stroke="none" 
	d="
M101.183517,133.243896 
	C99.895996,134.771622 98.838707,136.020737 97.377739,137.746765 
	C92.128098,130.460464 87.130394,123.523857 82.132690,116.587250 
	C92.460541,120.512444 102.476875,122.663422 112.520233,115.567307 
	C112.816208,116.068230 113.112175,116.569145 113.408150,117.070068 
	C109.410011,122.368477 105.411880,127.666885 101.183517,133.243896 
z"/>
<path fill="#F0F2FF" opacity="1.000000" stroke="none" 
	d="
M120.620895,169.757401 
	C119.964340,171.791382 119.653297,173.562393 119.254112,175.835266 
	C117.587364,175.912308 115.854408,175.992416 113.804100,176.087189 
	C113.522758,173.846558 113.281403,171.924316 113.049690,170.078949 
	C111.206543,167.974426 105.750526,170.974258 106.722176,165.904510 
	C107.034279,164.276062 110.264977,163.206970 112.427917,162.251968 
	C114.387535,160.725372 111.602455,155.408844 116.791824,156.530182 
	C118.491409,156.897415 119.623047,159.893066 120.533936,162.071121 
	C122.688568,163.822723 128.605484,161.908371 126.041107,168.721329 
	C124.474747,168.959961 122.720573,169.227203 120.620895,169.757401 
z"/>
<path fill="#B3BBFF" opacity="1.000000" stroke="none" 
	d="
M68.544632,171.421799 
	C68.219475,170.862015 68.001724,170.440216 68.129990,170.239151 
	C69.327133,168.362518 71.113739,166.667572 71.666039,164.631500 
	C72.165970,162.788498 71.337715,160.585236 71.040131,158.077499 
	C75.757149,162.041611 74.417084,168.525833 68.544632,171.421799 
z"/>
<path fill="#B5BCFF" opacity="1.000000" stroke="none" 
	d="
M45.259632,152.454681 
	C44.113560,155.646225 43.139374,158.504730 42.089912,161.584122 
	C40.365070,156.960663 42.002098,151.847610 46.876942,148.562988 
	C46.395134,149.749207 45.913326,150.935440 45.259632,152.454681 
z"/>
</svg>